<svg width="31" height="27" viewBox="0 0 31 27" fill="none" xmlns="http://www.w3.org/2000/svg">
<path d="M8.9 27C8.6 27 8.3 26.9 8.1 26.6C2.7 20.5 1.4 19.1 1.1 18.7C0.4 17.8 0 16.6 0 15.4C0 12.4 2.4 10 5.5 10C6.8 10 8 10.5 9 11.3C10 10.5 11.3 10 12.5 10C15.5 10 18 12.4 18 15.4C18 16.7 17.5 17.9 16.7 18.8L9.7 26.7C9.5 26.9 9.3 27 8.9 27ZM2.9 17.5C3.2 17.9 6.4 21.5 9 24.4L15.2 17.4C15.7 16.9 15.9 16.2 15.9 15.4C15.9 13.6 14.4 12.1 12.6 12.1C11.6 12.1 10.6 12.6 9.9 13.4C9.6 13.7 9.3 13.8 9 13.8C8.7 13.8 8.4 13.6 8.2 13.4C7.5 12.6 6.5 12.1 5.5 12.1C3.7 12.1 2.2 13.6 2.2 15.4C2.1 16.3 2.5 17 2.9 17.5C2.8 17.5 2.8 17.5 2.9 17.5Z" fill="black"/>
<path d="M31 9.5C31 14.7467 26.7467 19 21.5 19C16.2533 19 12 14.7467 12 9.5C12 4.25329 16.2533 0 21.5 0C26.7467 0 31 4.25329 31 9.5Z" fill="#7DB54F"/>
</svg>
