<svg width="28" height="12" viewBox="0 0 28 12" fill="none" xmlns="http://www.w3.org/2000/svg">
<path d="M6 0.300049L0 5.80005V12H12V5.80005L6 0.300049ZM11 11H1V6.20005L6 1.70005L11 6.20005V11Z" fill="white"/>
<path d="M4 10H5V7.5H7V10H8V6.5H4V10Z" fill="white"/>
<g opacity="0.3" clip-path="url(#clip0_22043_124)">
<path d="M27.8 6.60005L24 3.20005C23.8 3.00005 23.4 3.00005 23.1 3.20005C22.8 3.40005 22.9 3.80005 23.1 4.00005L26.4 7.00005L23.2 10C23 10.2 23 10.6 23.2 10.8C23.2 10.9 23.5 11 23.6 11C23.7 11 23.9 10.9 24 10.8L27.8 7.40005C28.1 7.20005 28.1 6.80005 27.8 6.60005Z" fill="white"/>
</g>
<defs>
<clipPath id="clip0_22043_124">
<rect width="5" height="8" fill="white" transform="translate(23 3)"/>
</clipPath>
</defs>
</svg>
